<svg xmlns="http://www.w3.org/2000/svg" xmlns:xlink="http://www.w3.org/1999/xlink" width="237" height="39">
    <path style=" stroke:none;fill-rule:evenodd;fill:rgb(100%,100%,100%);fill-opacity:1;"
        d="M 7.160156 0.679688 C 6.308594 0.730469 5.394531 0.96875 4.769531 1.304688 C 3.539062 1.972656 2.4375 3.515625 2.28125 4.792969 C 2.15625 5.789062 2.058594 28.597656 2.15625 33.988281 L 2.199219 36.46875 L 2.300781 36.746094 C 2.597656 37.558594 3.132812 37.675781 3.632812 37.042969 L 3.828125 36.796875 L 3.855469 30.929688 C 3.867188 27.707031 3.882812 22.589844 3.886719 19.566406 C 3.894531 12.898438 3.941406 7.292969 3.996094 5.78125 L 4.039062 4.660156 L 4.183594 4.382812 C 4.609375 3.554688 5.140625 3.089844 6.070312 2.722656 C 6.601562 2.515625 31.847656 2.371094 35.28125 2.554688 C 36.949219 2.644531 37.769531 3.15625 38.449219 4.527344 L 38.640625 4.914062 L 38.640625 33.269531 L 38.390625 33.726562 C 37.863281 34.683594 37.003906 35.390625 36.234375 35.488281 C 34.832031 35.664062 25.246094 35.707031 24.621094 35.535156 C 24.378906 35.472656 24.347656 35.238281 24.28125 33.066406 C 24.15625 28.933594 24.367188 29.183594 21.019531 29.199219 C 17.988281 29.210938 17.839844 29.246094 17.839844 29.933594 C 17.839844 30.621094 17.988281 30.679688 19.898438 30.765625 C 21.789062 30.851562 22.34375 30.90625 22.433594 31.023438 C 22.464844 31.0625 22.492188 31.933594 22.585938 35.839844 L 22.613281 36.933594 L 23.214844 37.488281 L 36.191406 37.488281 L 36.851562 37.191406 C 38.675781 36.371094 39.441406 35.671875 40.183594 34.144531 L 40.441406 33.621094 L 40.441406 4.511719 L 40.152344 3.953125 C 39.328125 2.339844 38.542969 1.585938 37.058594 0.972656 C 36.734375 0.839844 36.246094 0.816406 32.300781 0.761719 C 24.640625 0.65625 8.484375 0.605469 7.160156 0.679688 M 20.558594 11.816406 C 20.066406 12.019531 18.386719 13.160156 17.085938 14.175781 C 16.578125 14.570312 16.144531 14.859375 15.28125 15.375 C 13.988281 16.148438 11.632812 17.742188 9.878906 19.035156 C 9.3125 19.453125 8.097656 20.3125 6.851562 21.183594 C 4.914062 22.53125 4.878906 22.628906 5.8125 24.023438 C 7.160156 26.039062 7.402344 26.136719 8.835938 25.253906 C 9.351562 24.9375 9.453125 24.972656 9.558594 25.507812 C 9.613281 25.769531 9.625 26.382812 9.683594 32.25 C 9.726562 36.6875 9.738281 36.882812 10.042969 37.226562 C 10.253906 37.464844 10.398438 37.480469 12.859375 37.507812 C 13.828125 37.519531 15.515625 37.539062 16.613281 37.554688 L 18.609375 37.578125 L 18.828125 37.363281 C 19.335938 36.867188 19.378906 36.351562 18.949219 35.878906 L 18.820312 35.734375 L 15.898438 35.691406 C 14.292969 35.667969 12.652344 35.636719 12.25 35.625 L 11.523438 35.597656 L 11.476562 35.457031 C 11.378906 35.160156 11.359375 34.484375 11.320312 29.726562 C 11.253906 21.199219 11.351562 21.480469 8.960938 23.007812 C 7.949219 23.652344 7.441406 23.6875 7.441406 23.121094 C 7.441406 22.863281 7.53125 22.777344 8.421875 22.191406 C 8.726562 21.992188 9.445312 21.492188 10.011719 21.085938 C 11.113281 20.296875 12.660156 19.207031 13.578125 18.574219 C 14.722656 17.789062 16.671875 16.421875 17.042969 16.144531 C 17.578125 15.742188 17.84375 15.566406 18.261719 15.347656 C 18.457031 15.238281 18.960938 14.921875 19.378906 14.640625 C 20.945312 13.589844 20.976562 13.585938 21.933594 14.25 C 22.566406 14.6875 23.011719 14.976562 23.460938 15.230469 C 23.882812 15.472656 24.675781 16 25.238281 16.417969 C 25.542969 16.644531 26.636719 17.414062 27.960938 18.34375 C 28.632812 18.8125 28.914062 19.007812 29.960938 19.722656 C 31.472656 20.753906 31.582031 20.832031 32.398438 21.441406 C 32.828125 21.765625 33.394531 22.152344 33.65625 22.304688 C 34.441406 22.769531 34.652344 23.117188 34.339844 23.429688 C 34.152344 23.617188 33.753906 23.527344 33.210938 23.171875 C 32.933594 22.992188 31.265625 21.878906 30.558594 21.40625 C 28.640625 20.121094 26.136719 18.359375 25.054688 17.542969 C 22.332031 15.476562 21.230469 15.027344 20.945312 15.871094 C 20.71875 16.53125 20.933594 16.773438 23.078125 18.289062 C 23.464844 18.558594 24.167969 19.070312 24.640625 19.421875 C 26.289062 20.644531 28.199219 21.9375 29.71875 22.855469 C 30.347656 23.234375 31.007812 23.695312 32.367188 24.695312 C 34.453125 26.230469 34.660156 26.191406 36.121094 23.984375 C 36.972656 22.703125 36.925781 22.5 35.597656 21.570312 C 35.367188 21.410156 34.746094 20.976562 34.21875 20.609375 C 33.691406 20.238281 32.882812 19.664062 32.421875 19.324219 C 29.800781 17.410156 28.265625 16.367188 26.679688 15.421875 C 26.101562 15.074219 25.53125 14.6875 24.941406 14.242188 C 23.609375 13.242188 22.761719 12.664062 21.769531 12.074219 C 21.128906 11.695312 20.945312 11.65625 20.558594 11.816406 M 20.210938 21.726562 C 18.859375 22.078125 18.5 22.746094 18.5 24.886719 C 18.5 26.679688 18.617188 26.957031 19.351562 26.914062 C 19.925781 26.882812 20.042969 26.605469 20.121094 25.105469 C 20.1875 23.746094 20.253906 23.550781 20.722656 23.320312 C 21.34375 23.011719 21.648438 23.476562 21.71875 24.84375 C 21.816406 26.640625 22.183594 27.261719 22.917969 26.863281 C 23.328125 26.640625 23.429688 26.363281 23.46875 25.367188 C 23.507812 24.328125 23.367188 23.28125 23.117188 22.777344 C 22.703125 21.925781 21.332031 21.433594 20.210938 21.726562 M 28.300781 24.707031 C 26.941406 25.003906 26.722656 25.625 26.722656 29.128906 C 26.722656 34.144531 26.886719 34.527344 29.046875 34.527344 C 30.761719 34.53125 31.078125 34.414062 31.078125 33.78125 C 31.078125 33.132812 30.757812 32.9375 29.636719 32.890625 C 28.335938 32.835938 28.335938 32.828125 28.292969 30.128906 C 28.238281 26.574219 28.265625 26.511719 29.738281 26.382812 C 30.867188 26.285156 31.066406 26.164062 31.03125 25.601562 C 30.984375 24.90625 29.542969 24.433594 28.300781 24.707031 " />

    <path fill="#fff" stroke="none"
        d="M52.61 17.42L57.55 7.31L57.55 18.32L58.86 18.32L58.86 5.72L56.92 5.72L52.63 14.67L48.33 5.72L46.39 5.72L46.39 18.32L47.68 18.32L47.68 7.33ZM65.30 18.32L66.69 18.32L66.69 13.25L71.71 5.72L70.15 5.72L66.04 11.97L61.92 5.72L60.30 5.72L65.30 13.19ZM77.92 17.24C74.99 17.24 72.76 14.98 72.76 12.02C72.76 9.07 74.97 6.80 77.89 6.80C79.43 6.80 80.96 7.45 81.95 8.57L82.87 7.60C81.65 6.28 79.85 5.53 77.89 5.53C74.21 5.53 71.35 8.39 71.35 12.02C71.35 15.66 74.21 18.52 77.89 18.52C79.79 18.52 81.58 17.77 82.84 16.45L81.94 15.52C80.98 16.60 79.49 17.24 77.92 17.24ZM96.97 12.02C96.97 8.39 94.10 5.53 90.49 5.53C86.85 5.53 83.99 8.39 83.99 12.02C83.99 15.66 86.85 18.52 90.49 18.52C94.10 18.52 96.97 15.66 96.97 12.02ZM95.56 12.02C95.56 14.96 93.35 17.24 90.49 17.24C87.61 17.24 85.39 14.96 85.39 12.02C85.39 9.07 87.61 6.80 90.49 6.80C93.35 6.80 95.56 9.07 95.56 12.02ZM99.14 5.72L99.14 18.32L100.46 18.32L100.46 7.83L108.20 18.32L109.42 18.32L109.42 5.72L108.11 5.72L108.11 15.95L100.53 5.72ZM111.11 6.97L115.67 6.97L115.67 18.32L117.05 18.32L117.05 6.97L121.61 6.97L121.61 5.72L111.11 5.72ZM123.30 18.32L124.69 18.32L124.69 12.91L128.72 12.91L131.42 18.32L132.95 18.32L130.12 12.73C131.76 12.26 132.80 11.00 132.80 9.34C132.80 7.16 131.17 5.72 128.70 5.72L123.30 5.72ZM128.61 6.97C130.30 6.97 131.42 7.90 131.42 9.34C131.42 10.80 130.30 11.74 128.61 11.74L124.69 11.74L124.69 6.97ZM147.29 12.02C147.29 8.39 144.43 5.53 140.81 5.53C137.18 5.53 134.32 8.39 134.32 12.02C134.32 15.66 137.18 18.52 140.81 18.52C144.43 18.52 147.29 15.66 147.29 12.02ZM145.89 12.02C145.89 14.96 143.68 17.24 140.81 17.24C137.93 17.24 135.72 14.96 135.72 12.02C135.72 9.07 137.93 6.80 140.81 6.80C143.68 6.80 145.89 9.07 145.89 12.02ZM149.47 18.32L158.36 18.32L158.36 17.08L150.86 17.08L150.86 5.72L149.47 5.72ZM160.34 18.32L169.24 18.32L169.24 17.08L161.73 17.08L161.73 5.72L160.34 5.72ZM171.22 18.32L180.31 18.32L180.31 17.10L172.60 17.10L172.60 12.56L177.59 12.56L177.59 11.36L172.60 11.36L172.60 6.95L180.23 6.95L180.23 5.72L171.22 5.72ZM182.30 18.32L183.69 18.32L183.69 12.91L187.72 12.91L190.42 18.32L191.95 18.32L189.13 12.73C190.76 12.26 191.81 11.00 191.81 9.34C191.81 7.16 190.17 5.72 187.70 5.72L182.30 5.72ZM187.61 6.97C189.31 6.97 190.42 7.90 190.42 9.34C190.42 10.80 189.31 11.74 187.61 11.74L183.69 11.74L183.69 6.97ZM194.17 16.60C193.66 16.60 193.25 17.01 193.25 17.51C193.25 18.02 193.66 18.43 194.17 18.43C194.67 18.43 195.08 18.02 195.08 17.51C195.08 17.01 194.67 16.60 194.17 16.60ZM208.85 12.02C208.85 8.39 205.99 5.53 202.37 5.53C198.74 5.53 195.88 8.39 195.88 12.02C195.88 15.66 198.74 18.52 202.37 18.52C205.99 18.52 208.85 15.66 208.85 12.02ZM207.45 12.02C207.45 14.96 205.24 17.24 202.37 17.24C199.49 17.24 197.28 14.96 197.28 12.02C197.28 9.07 199.49 6.80 202.37 6.80C205.24 6.80 207.45 9.07 207.45 12.02ZM211.03 18.32L212.42 18.32L212.42 12.91L216.45 12.91L219.15 18.32L220.68 18.32L217.85 12.73C219.49 12.26 220.54 11.00 220.54 9.34C220.54 7.16 218.90 5.72 216.43 5.72L211.03 5.72ZM216.34 6.97C218.03 6.97 219.15 7.90 219.15 9.34C219.15 10.80 218.03 11.74 216.34 11.74L212.42 11.74L212.42 6.97ZM234.68 12.29L234.68 11.74L228.76 11.74L228.76 12.96L233.28 12.96C233.06 15.43 231.10 17.24 228.55 17.24C225.67 17.24 223.45 14.98 223.45 12.02C223.45 9.07 225.67 6.80 228.55 6.80C230.09 6.80 231.61 7.45 232.58 8.55L233.51 7.60C232.29 6.28 230.49 5.53 228.55 5.53C224.91 5.53 222.05 8.41 222.05 12.02C222.05 15.64 224.93 18.52 228.56 18.52C232.02 18.52 234.68 15.80 234.68 12.29Z" />

    <path fill="#fff" stroke="none"
        d="M45.20 24.64L48.24 24.64L48.24 32.22L49.16 32.22L49.16 24.64L52.20 24.64L52.20 23.82L45.20 23.82ZM53.16 32.22L54.05 32.22L54.05 27.79C54.41 27.20 54.98 26.86 55.70 26.86C56.74 26.86 57.38 27.52 57.38 28.59L57.38 32.22L58.26 32.22L58.26 28.41C58.26 27.03 57.31 26.08 55.94 26.08C55.16 26.08 54.52 26.36 54.05 26.91L54.05 23.61L53.16 23.82ZM64.81 31.58L64.26 30.99C63.85 31.34 63.23 31.54 62.60 31.54C61.42 31.54 60.48 30.67 60.35 29.48L65.28 29.48L65.28 29.20C65.28 27.48 64.03 26.11 62.44 26.11C60.78 26.11 59.47 27.48 59.47 29.20C59.47 30.97 60.83 32.32 62.57 32.32C63.43 32.32 64.14 32.08 64.81 31.58ZM62.41 26.89C63.41 26.89 64.24 27.70 64.39 28.77L60.37 28.77C60.54 27.67 61.37 26.89 62.41 26.89ZM77.52 28.02C77.52 25.59 75.61 23.68 73.20 23.68C70.78 23.68 68.87 25.59 68.87 28.02C68.87 30.44 70.78 32.35 73.20 32.35C75.61 32.35 77.52 30.44 77.52 28.02ZM76.58 28.02C76.58 29.97 75.11 31.50 73.20 31.50C71.28 31.50 69.80 29.97 69.80 28.02C69.80 26.05 71.28 24.54 73.20 24.54C75.11 24.54 76.58 26.05 76.58 28.02ZM78.80 34.68L79.69 34.68L79.69 31.62C80.23 32.06 80.90 32.31 81.61 32.31C83.33 32.31 84.65 30.96 84.65 29.20C84.65 27.46 83.33 26.11 81.62 26.11C80.87 26.11 80.20 26.36 79.68 26.85L79.68 26.20L78.80 26.20ZM81.54 26.89C82.80 26.89 83.77 27.90 83.77 29.22C83.77 30.54 82.81 31.53 81.54 31.53C80.80 31.53 80.11 31.22 79.69 30.70L79.69 27.73C80.11 27.20 80.78 26.89 81.54 26.89ZM90.96 31.58L90.41 30.99C90.00 31.34 89.38 31.54 88.75 31.54C87.56 31.54 86.63 30.67 86.50 29.48L91.43 29.48L91.43 29.20C91.43 27.48 90.18 26.11 88.58 26.11C86.93 26.11 85.62 27.48 85.62 29.20C85.62 30.97 86.98 32.32 88.72 32.32C89.58 32.32 90.29 32.08 90.96 31.58ZM88.56 26.89C89.56 26.89 90.38 27.70 90.54 28.77L86.52 28.77C86.69 27.67 87.52 26.89 88.56 26.89ZM92.66 32.22L93.55 32.22L93.55 27.79C93.91 27.20 94.49 26.86 95.21 26.86C96.24 26.86 96.89 27.52 96.89 28.59L96.89 32.22L97.76 32.22L97.76 28.41C97.76 27.03 96.82 26.08 95.45 26.08C94.67 26.08 94.02 26.36 93.55 26.91L93.55 26.20L92.66 26.20ZM101.21 30.78C102.13 31.78 103.39 32.34 104.72 32.34C106.62 32.34 107.94 31.30 107.94 29.83C107.94 28.52 107.15 27.82 105.31 27.52L104.11 27.33C102.89 27.14 102.41 26.76 102.41 25.98C102.41 25.10 103.22 24.50 104.42 24.50C105.38 24.50 106.32 24.85 107.24 25.54L107.77 24.82C106.82 24.10 105.64 23.71 104.46 23.71C102.70 23.71 101.51 24.66 101.51 26.05C101.51 27.24 102.25 27.91 103.87 28.17L105.08 28.36C106.46 28.59 107.02 29.01 107.02 29.88C107.02 30.85 106.08 31.53 104.76 31.53C103.67 31.53 102.68 31.06 101.82 30.14ZM108.88 29.20C108.88 30.97 110.23 32.34 111.95 32.34C113.65 32.34 115.01 30.97 115.01 29.20C115.01 27.45 113.65 26.08 111.95 26.08C110.23 26.08 108.88 27.45 108.88 29.20ZM111.95 31.54C110.71 31.54 109.75 30.51 109.75 29.20C109.75 27.90 110.72 26.88 111.95 26.88C113.17 26.88 114.13 27.90 114.13 29.20C114.13 30.51 113.17 31.54 111.95 31.54ZM117.10 26.20L116.22 26.20L116.22 30.01C116.22 31.39 117.17 32.34 118.55 32.34C119.33 32.34 119.96 32.06 120.43 31.52L120.43 32.22L121.32 32.22L121.32 26.20L120.43 26.20L120.43 30.62C120.07 31.22 119.50 31.56 118.78 31.56C117.74 31.56 117.10 30.90 117.10 29.83ZM122.83 32.22L123.72 32.22L123.72 28.10C124.03 27.30 124.60 26.86 125.34 26.86C125.54 26.86 125.75 26.90 125.96 26.97L125.96 26.16C125.78 26.10 125.63 26.07 125.40 26.07C124.67 26.07 124.08 26.43 123.72 27.06L123.72 26.20L122.83 26.20ZM129.36 31.52C128.12 31.52 127.15 30.51 127.15 29.20C127.15 27.92 128.11 26.90 129.35 26.90C130.00 26.90 130.64 27.18 131.12 27.68L131.69 27.03C131.06 26.43 130.21 26.08 129.34 26.08C127.62 26.08 126.28 27.46 126.28 29.20C126.28 30.96 127.62 32.32 129.34 32.32C130.20 32.32 131.03 31.98 131.66 31.36L131.11 30.76C130.60 31.27 130.01 31.52 129.36 31.52ZM137.53 31.58L136.98 30.99C136.57 31.34 135.95 31.54 135.32 31.54C134.14 31.54 133.20 30.67 133.07 29.48L138.00 29.48L138.00 29.20C138.00 27.48 136.75 26.11 135.16 26.11C133.50 26.11 132.19 27.48 132.19 29.20C132.19 30.97 133.55 32.32 135.29 32.32C136.15 32.32 136.86 32.08 137.53 31.58ZM135.13 26.89C136.13 26.89 136.96 27.70 137.11 28.77L133.09 28.77C133.26 27.67 134.09 26.89 135.13 26.89ZM145.97 31.50C144.01 31.50 142.52 29.98 142.52 28.02C142.52 26.05 144.00 24.54 145.94 24.54C146.98 24.54 148.00 24.97 148.66 25.71L149.27 25.06C148.45 24.19 147.25 23.68 145.94 23.68C143.50 23.68 141.59 25.59 141.59 28.02C141.59 30.44 143.50 32.35 145.94 32.35C147.22 32.35 148.40 31.84 149.24 30.97L148.64 30.34C148.01 31.06 147.01 31.50 145.97 31.50ZM149.96 29.20C149.96 30.97 151.32 32.34 153.04 32.34C154.74 32.34 156.10 30.97 156.10 29.20C156.10 27.45 154.74 26.08 153.04 26.08C151.32 26.08 149.96 27.45 149.96 29.20ZM153.04 31.54C151.80 31.54 150.84 30.51 150.84 29.20C150.84 27.90 151.81 26.88 153.04 26.88C154.26 26.88 155.22 27.90 155.22 29.20C155.22 30.51 154.26 31.54 153.04 31.54ZM157.33 32.22L158.22 32.22L158.22 27.79C158.58 27.20 159.16 26.86 159.88 26.86C160.91 26.86 161.56 27.52 161.56 28.59L161.56 32.22L162.43 32.22L162.43 28.41C162.43 27.03 161.48 26.08 160.12 26.08C159.34 26.08 158.69 26.36 158.22 26.91L158.22 26.20L157.33 26.20ZM164.42 30.87C164.42 31.82 165.00 32.32 166.04 32.32C166.39 32.32 166.79 32.28 167.10 32.17L167.10 31.39C166.80 31.51 166.56 31.54 166.22 31.54C165.56 31.54 165.30 31.29 165.30 30.64L165.30 26.96L167.11 26.96L167.11 26.20L165.30 26.20L165.30 24.45L164.42 24.68L164.42 26.20L163.13 26.20L163.13 26.96L164.42 26.96ZM168.06 32.22L168.95 32.22L168.95 28.10C169.26 27.30 169.82 26.86 170.57 26.86C170.77 26.86 170.98 26.90 171.19 26.97L171.19 26.16C171.01 26.10 170.86 26.07 170.63 26.07C169.90 26.07 169.31 26.43 168.95 27.06L168.95 26.20L168.06 26.20ZM171.50 29.20C171.50 30.97 172.86 32.34 174.58 32.34C176.28 32.34 177.64 30.97 177.64 29.20C177.64 27.45 176.28 26.08 174.58 26.08C172.86 26.08 171.50 27.45 171.50 29.20ZM174.58 31.54C173.34 31.54 172.38 30.51 172.38 29.20C172.38 27.90 173.35 26.88 174.58 26.88C175.80 26.88 176.76 27.90 176.76 29.20C176.76 30.51 175.80 31.54 174.58 31.54ZM179.76 23.61L178.87 23.82L178.87 32.22L179.76 32.22ZM182.16 23.61L181.27 23.82L181.27 32.22L182.16 32.22ZM188.74 31.58L188.18 30.99C187.78 31.34 187.15 31.54 186.53 31.54C185.34 31.54 184.40 30.67 184.27 29.48L189.20 29.48L189.20 29.20C189.20 27.48 187.96 26.11 186.36 26.11C184.70 26.11 183.40 27.48 183.40 29.20C183.40 30.97 184.75 32.32 186.49 32.32C187.36 32.32 188.06 32.08 188.74 31.58ZM186.34 26.89C187.33 26.89 188.16 27.70 188.32 28.77L184.30 28.77C184.46 27.67 185.29 26.89 186.34 26.89ZM190.44 32.22L191.33 32.22L191.33 28.10C191.64 27.30 192.20 26.86 192.95 26.86C193.15 26.86 193.36 26.90 193.57 26.97L193.57 26.16C193.39 26.10 193.24 26.07 193.01 26.07C192.28 26.07 191.69 26.43 191.33 27.06L191.33 26.20L190.44 26.20Z" />

</svg>