<svg id="svg" version="1.1" xmlns="http://www.w3.org/2000/svg" xmlns:xlink="http://www.w3.org/1999/xlink" width="400"
    height="372">
    <g id="svgg">
        <path id="path0"
            d="M66.605 6.333 C 58.676 6.795,50.168 9.020,44.372 12.150 C 32.919 18.332,22.660 32.696,21.203 44.589 C 20.070 53.836,19.166 265.968,20.046 316.093 L 20.451 339.163 21.397 341.753 C 24.148 349.285,29.139 350.390,33.794 344.496 L 35.599 342.210 35.849 287.663 C 35.987 257.662,36.126 210.093,36.158 181.953 C 36.230 119.959,36.648 67.842,37.186 53.767 L 37.585 43.349 38.919 40.762 C 42.884 33.076,47.805 28.753,56.479 25.334 C 61.411 23.390,296.240 22.036,328.186 23.768 C 343.730 24.610,351.332 29.337,357.659 42.094 L 359.442 45.689 359.442 177.542 L 359.442 309.395 357.116 313.642 C 352.226 322.571,344.217 329.121,337.077 330.030 C 324.030 331.690,234.845 332.068,229.023 330.487 C 226.784 329.880,226.486 327.711,225.874 307.535 C 224.708 269.087,226.660 271.403,195.535 271.541 C 167.347 271.666,165.953 271.988,165.953 278.394 C 165.953 284.772,167.342 285.332,185.116 286.134 C 202.673 286.925,207.847 287.446,208.684 288.506 C 208.982 288.884,209.239 296.985,210.108 333.326 L 210.351 343.489 213.152 346.070 L 215.953 348.651 276.309 348.651 L 336.664 348.651 342.799 345.893 C 359.759 338.268,366.887 331.756,373.814 317.555 L 376.186 312.691 376.186 177.334 L 376.186 41.977 373.516 36.762 C 365.836 21.756,358.556 14.743,344.744 9.041 C 341.721 7.793,337.157 7.591,300.465 7.084 C 229.204 6.099,78.920 5.616,66.605 6.333 M191.235 109.891 C 186.649 111.778,171.045 122.375,158.923 131.834 C 154.216 135.507,150.175 138.192,142.140 142.987 C 130.111 150.164,108.221 164.991,91.907 177.012 C 86.621 180.906,75.327 188.916,63.736 196.991 C 45.713 209.547,45.383 210.448,54.062 223.426 C 66.593 242.163,68.858 243.083,82.199 234.859 C 86.987 231.907,87.939 232.240,88.934 237.217 C 89.423 239.665,89.525 245.349,90.064 299.907 C 90.472 341.190,90.603 342.996,93.431 346.217 C 95.373 348.428,96.714 348.561,119.628 348.827 C 128.633 348.931,144.346 349.121,154.548 349.250 L 173.095 349.485 175.136 347.487 C 179.869 342.852,180.261 338.074,176.272 333.661 L 175.070 332.332 147.907 331.932 C 132.967 331.712,117.694 331.426,113.965 331.295 L 107.186 331.058 106.755 329.752 C 105.847 327.002,105.678 320.705,105.317 276.465 C 104.670 197.159,105.585 199.761,83.349 213.963 C 73.962 219.958,69.209 220.311,69.209 215.013 C 69.209 212.632,70.063 211.825,78.326 206.394 C 81.191 204.510,87.854 199.873,93.134 196.089 C 103.362 188.759,117.776 178.621,126.326 172.745 C 136.937 165.453,155.087 152.710,158.543 150.126 C 163.529 146.399,165.997 144.783,169.860 142.716 C 171.702 141.731,176.391 138.787,180.279 136.173 C 194.844 126.383,195.143 126.338,204.048 132.520 C 209.903 136.584,214.074 139.267,218.233 141.643 C 222.176 143.896,229.542 148.812,234.791 152.694 C 237.608 154.777,247.778 161.967,260.093 170.581 C 266.343 174.953,268.986 176.775,278.698 183.408 C 292.777 193.025,293.786 193.736,301.395 199.422 C 305.386 202.404,310.641 206.015,313.072 207.445 C 320.396 211.754,322.361 214.976,319.444 217.893 C 317.696 219.640,313.988 218.801,308.947 215.515 C 306.369 213.834,290.825 203.488,284.279 199.096 C 266.440 187.127,243.136 170.757,233.078 163.132 C 207.754 143.931,197.495 139.766,194.825 147.602 C 192.739 153.726,194.741 155.989,214.698 170.071 C 218.279 172.598,224.809 177.339,229.209 180.606 C 244.561 192.006,262.322 204.018,276.465 212.567 C 282.305 216.096,288.456 220.369,301.103 229.680 C 320.484 243.949,322.408 243.584,336.003 223.070 C 343.916 211.129,343.509 209.242,331.159 200.618 C 329.012 199.119,323.237 195.087,318.326 191.659 C 313.414 188.230,305.879 182.858,301.581 179.721 C 277.203 161.928,262.939 152.228,248.186 143.410 C 242.823 140.204,237.488 136.597,232.000 132.467 C 219.634 123.158,211.747 117.764,202.519 112.304 C 196.551 108.772,194.843 108.407,191.235 109.891 M187.992 202.052 C 175.438 205.342,172.093 211.525,172.093 231.442 C 172.093 248.119,173.176 250.700,180.010 250.311 C 185.364 250.006,186.458 247.431,187.166 233.466 C 187.805 220.848,188.425 219.008,192.760 216.864 C 198.532 214.010,201.376 218.347,202.053 231.031 C 202.945 247.760,206.369 253.547,213.183 249.839 C 216.991 247.766,217.940 245.179,218.296 235.907 C 218.666 226.252,217.357 216.527,215.056 211.832 C 211.180 203.925,198.429 199.317,187.992 202.052 M263.256 229.759 C 250.628 232.532,248.565 238.310,248.576 270.884 C 248.591 317.545,250.117 321.091,270.193 321.110 C 286.150 321.125,289.116 320.038,289.116 314.176 C 289.116 308.153,286.130 306.307,275.680 305.873 C 263.604 305.372,263.574 305.311,263.196 280.186 C 262.697 247.136,262.927 246.541,276.644 245.350 C 287.142 244.439,288.998 243.316,288.654 238.083 C 288.229 231.619,274.811 227.221,263.256 229.759 "
            stroke="none" fill="#ffffff" fill-rule="evenodd"></path>
        <path id="path1" d="" stroke="none" fill="#080404" fill-rule="evenodd"></path>
    </g>
</svg>